<?xml version="1.0" encoding="UTF-8" standalone="no"?>
<svg
   xmlns:dc="http://purl.org/dc/elements/1.1/"
   xmlns:cc="http://creativecommons.org/ns#"
   xmlns:rdf="http://www.w3.org/1999/02/22-rdf-syntax-ns#"
   xmlns:svg="http://www.w3.org/2000/svg"
   xmlns="http://www.w3.org/2000/svg"
   viewBox="0 0 78.919998 53.826668"
   height="53.826668"
   width="78.919998"
   xml:space="preserve"
   id="svg2"
   version="1.1"><metadata
     id="metadata8"><rdf:RDF><cc:Work
         rdf:about=""><dc:format>image/svg+xml</dc:format><dc:type
           rdf:resource="http://purl.org/dc/dcmitype/StillImage" /></cc:Work></rdf:RDF></metadata><defs
     id="defs6" /><g
     transform="matrix(1.3333333,0,0,-1.3333333,0,53.826667)"
     id="g10"><g
       transform="scale(0.1)"
       id="g12"><path
         id="path14"
         style="fill:#ffffff;fill-opacity:1;fill-rule:nonzero;stroke:none"
         d="m 347.125,326.051 c 6.188,-3.285 10.438,-6.821 12.996,-10.805 0.399,-0.625 0.774,-1.285 1.109,-1.965 l 2.524,0.59 v 14.688 H 347.75 Z m -112.227,0.004 c 6.172,-3.305 10.415,-6.84 12.961,-10.809 1.172,-1.828 2.121,-4 2.887,-6.641 l 0.277,-0.957 h 15.993 l 0.64,2.493 c -2.097,1.16 -3.91,2.343 -5.371,3.535 -4.582,3.746 -7.754,8.113 -9.437,12.965 -0.121,0.332 -0.235,0.648 -0.332,0.976 l -0.293,0.942 h -16.7 z m -113.382,-3.492 17.23,-29.149 v 14.234 h 16.004 l 0.641,2.493 c -2.106,1.16 -3.907,2.343 -5.371,3.535 -4.571,3.742 -7.75,8.105 -9.438,12.965 -1.504,4.132 -2.144,9.711 -2.152,18.672 L 138.422,350 Z M 79.668,269.426 h 60.977 l -0.485,1.691 c -0.43,1.524 -0.73,3.164 -0.957,5.106 l -0.105,0.925 -43.3675,10.504 z m 342.516,0 h 56.992 l -0.543,1.726 c -1.387,4.434 -1.945,9.485 -1.653,15 v 10.293 l -2.515,0.594 c -1.242,-2.469 -2.793,-4.719 -4.617,-6.684 -3.485,-3.496 -7.258,-5.828 -11.496,-7.101 -3.661,-1.289 -8.446,-1.906 -14.696,-1.906 H 422.184 Z M 20.4258,1.33203 V 269.426 h 36.582 l -2.4961,32.137 -34.0859,14.738 v 14.383 l 34.5547,14.289 3.1797,33.566 H 78.832 l 17.5157,-20.598 48.7343,10.918 0.293,0.34 c 0.762,0.903 1.516,1.692 2.301,2.395 3.16,2.707 6.726,4.496 11.195,5.613 3.414,0.898 8.426,1.332 15.328,1.332 h 41.578 c 7.012,0 12.153,-0.359 15.715,-1.113 4.442,-1.16 8.336,-3.156 11.516,-5.91 3.305,-2.871 5.762,-6.442 7.305,-10.614 0,-0.007 0.031,-0.089 0.058,-0.168 l 1.285,-3.339 1.211,3.367 c 1.567,4.379 3.949,8.027 7.074,10.832 3.196,2.742 6.707,4.535 11.036,5.613 3.64,0.91 8.562,1.332 15.488,1.332 h 41.578 c 7.008,0 12.148,-0.359 15.711,-1.113 4.254,-1.113 7.879,-2.953 11.344,-5.766 2.597,-2.25 4.621,-4.785 6.14,-7.722 l 2.516,0.613 v 13.988 h 78.625 c 6.637,0 11.219,-0.488 14.855,-1.582 4.172,-0.98 7.926,-2.969 10.946,-5.754 3.593,-3.348 6.183,-7.625 7.703,-12.695 l 1.305,-4.352 1.25,4.364 c 3.757,13.074 14.742,19.996 31.761,20.019 h 41.246 c 13.805,0 18.676,-1.281 21.145,-2.25 8.215,-3.082 17.984,-10.644 17.984,-29.219 V 1.33203 H 20.4258" /><path
         id="path16"
         style="fill:#1d1a19;fill-opacity:1;fill-rule:nonzero;stroke:none"
         d="m 583.43,335.063 h -44.465 c 0.16,0.957 0.16,1.921 0.16,2.398 0,5.445 -1.758,8.164 -5.434,8.164 -3.675,0 -5.593,-3.043 -5.593,-8.805 v -44.64 c 0,-5.446 1.918,-8.004 5.433,-8.004 3.676,0 5.434,2.402 5.434,7.359 v 6.242 h -6.559 v 25.926 H 583.43 V 136.414 H 27.5781 V 262.27 H 154.91 c -1.25,0.867 -2.406,1.867 -3.418,3.019 -0.363,0.395 -0.578,0.82 -0.902,1.227 -1.66,2.05 -2.902,4.207 -3.574,6.613 -0.801,2.883 -1.121,7.203 -1.121,12.809 V 300.5 h 44.3 v -8.004 c 0,-5.445 1.758,-8.16 5.442,-8.16 3.832,0 5.59,2.883 5.59,8.637 0,2.882 -0.637,5.125 -1.758,6.402 -1.114,1.125 -3.996,2.727 -8.633,4.32 l -23.668,8.965 c -5.918,2.238 -10.074,4.481 -12.633,6.563 -3.519,2.879 -5.918,6.074 -7.191,9.757 -1.289,3.52 -1.77,8.961 -1.77,16.485 0,9.765 2.246,16.64 6.875,20.805 2.246,1.914 4.961,3.199 8.16,4 3.039,0.8 7.68,1.117 13.602,1.117 h 41.566 c 6.403,0 11.2,-0.317 14.239,-0.961 3.035,-0.797 5.918,-2.242 8.312,-4.317 2.399,-2.082 4.16,-4.644 5.281,-7.679 1.118,-3.043 1.75,-6.887 1.75,-11.524 V 335.703 H 201.07 c 0,2.238 -0.164,4 -0.48,5.285 -0.477,3.196 -2.235,4.797 -5.277,4.797 -1.442,0 -2.563,-0.48 -3.52,-1.437 -1.117,-1.125 -1.598,-2.403 -1.598,-3.844 0,-1.918 0.641,-3.359 1.918,-4.32 1.282,-0.965 4.481,-2.399 9.598,-4.481 l 20.629,-7.84 c 10.07,-3.843 16.629,-8.004 19.508,-12.48 1.437,-2.242 2.398,-5.445 3.039,-9.281 0.472,-4.004 0.801,-10.086 0.801,-18.094 0,-4.953 -0.485,-8.957 -1.442,-11.836 -0.16,-0.488 -0.355,-0.961 -0.57,-1.418 h -0.098 c -0.351,-0.75 -0.723,-1.492 -1.183,-2.184 -0.454,-0.707 -0.954,-1.398 -1.516,-2.054 -0.52,-0.621 -0.957,-1.27 -1.594,-1.864 -1.055,-0.925 -2.246,-1.672 -3.465,-2.382 h 31.336 c -1.238,0.867 -2.39,1.867 -3.402,3.019 -0.371,0.406 -0.695,0.816 -1.035,1.227 -0.617,0.746 -1.125,1.531 -1.582,2.332 -0.375,0.617 -0.688,1.261 -0.965,1.906 h -0.09 c -0.332,0.769 -0.617,1.555 -0.805,2.375 -0.8,2.883 -1.281,7.203 -1.281,12.809 V 300.5 h 44.301 v -8.004 c 0,-5.445 1.918,-8.16 5.594,-8.16 3.675,0 5.593,2.883 5.593,8.637 0,2.882 -0.632,5.125 -1.754,6.402 -1.281,1.125 -4.156,2.727 -8.632,4.32 l -23.668,8.965 c -5.918,2.238 -10.075,4.481 -12.633,6.563 -3.52,2.879 -5.918,6.074 -7.195,9.757 -1.282,3.52 -1.922,8.961 -1.922,16.485 0,9.765 2.398,16.64 7.039,20.805 2.23,1.914 4.793,3.199 7.996,4 3.191,0.8 7.832,1.117 13.75,1.117 h 41.578 c 6.395,0 11.191,-0.317 14.23,-0.961 3.04,-0.797 5.758,-2.242 8.317,-4.317 2.398,-2.082 4.156,-4.644 5.277,-7.679 1.121,-3.043 1.598,-6.887 1.598,-11.524 v -11.203 h -44.297 c 0,2.238 0,4 -0.316,5.285 -0.481,3.196 -2.403,4.797 -5.278,4.797 -1.441,0 -2.562,-0.48 -3.679,-1.437 -0.961,-1.125 -1.438,-2.403 -1.438,-3.844 0,-1.918 0.641,-3.359 1.918,-4.32 1.273,-0.965 4.477,-2.399 9.594,-4.481 l 20.469,-7.84 c 10.234,-3.843 16.792,-8.004 19.667,-12.48 1.442,-2.242 2.403,-5.445 2.883,-9.281 0.641,-4.004 0.957,-10.086 0.957,-18.094 0,-4.953 -0.48,-8.957 -1.437,-11.836 -0.16,-0.488 -0.356,-0.961 -0.57,-1.418 h -0.098 c -0.352,-0.75 -0.723,-1.492 -1.188,-2.18 -0.449,-0.711 -0.945,-1.402 -1.507,-2.058 -0.528,-0.621 -0.961,-1.27 -1.598,-1.864 -1.055,-0.925 -2.246,-1.672 -3.465,-2.382 h 22.816 v 109.117 h 71.481 c 5.277,0 9.594,-0.317 12.793,-1.278 3.359,-0.8 6.078,-2.242 8.156,-4.16 4.641,-4.324 7.039,-10.879 7.039,-19.683 V 312.98 c 0,-4.324 -0.48,-7.683 -1.281,-10.402 -0.961,-2.562 -2.402,-5.121 -4.477,-7.363 -2.398,-2.399 -5.121,-4.16 -8.316,-5.117 -3.195,-1.121 -7.355,-1.602 -12.637,-1.602 H 415.039 V 262.27 h 78.711 c -1.875,1.187 -3.578,2.535 -4.91,4.246 -0.985,1.257 -1.777,2.695 -2.461,4.238 h -0.031 c -1.778,4.016 -2.555,8.988 -2.239,15.019 v 61.934 c 0.168,16.16 8.961,23.84 26.715,23.68 h 40.617 c 9.438,0 15.672,-0.641 18.555,-1.758 8.949,-3.359 13.434,-10.883 13.434,-22.563 z m -29.2,-213.458 c -0.164,0.485 -0.324,0.641 -0.64,0.801 -0.485,0.324 -1.918,0.481 -4.645,0.641 v 2.562 c 4.16,-0.16 7.36,-0.32 9.606,-0.32 3.836,0 7.195,0.16 10.394,0.32 v -2.562 c -2.875,-0.16 -4.32,-0.317 -4.8,-0.641 -0.317,-0.316 -0.477,-0.957 -0.637,-1.922 -0.156,-1.918 -0.156,-5.921 -0.156,-11.847 0,-7.848 0,-13.2893 0,-16.4886 0,-3.0468 0.316,-4.9648 0.476,-5.4453 0.156,-0.3203 0.481,-0.4765 0.797,-0.6445 0.48,-0.1602 1.762,-0.3164 4.32,-0.4766 v -2.5625 l -3.675,0.1602 c -2.243,0 -4.325,0 -6.082,0 l -10.243,-0.1602 v 2.5625 c 2.879,0.1602 4.485,0.3164 4.801,0.6446 0.32,0.3164 0.645,1.1172 0.645,2.3984 0.156,2.7188 0.156,7.6836 0.156,15.047 0,2.726 0,6.73 0,12.012 -0.156,3.683 -0.156,5.605 -0.317,5.921 z m 15.04,-60.3589 c -0.641,0 -1.758,-0.1602 -3.364,-0.3242 -0.801,0 -1.281,-0.1602 -1.437,-0.3164 -0.16,-0.1602 -0.324,-0.4844 -0.485,-0.8008 -0.156,-0.6445 -0.316,-2.8867 -0.316,-6.7266 v -12.332 l -0.16,-9.2813 c 0,-4.9648 -0.156,-8.0078 -0.156,-8.9687 -0.325,-2.4023 -1.286,-4.8008 -2.727,-6.8867 -1.437,-2.0781 -3.359,-4.0039 -5.918,-5.6055 -1.918,-1.27734 -3.844,-1.91796 -5.602,-1.91796 -0.636,0 -1.437,0.16015 -2.242,0.48047 0,1.43749 0.164,2.23829 0.164,2.72269 0,0.6406 -0.164,1.4414 -0.164,2.7187 l 0.641,0.4805 c 1.281,-1.4375 2.726,-2.2422 4.32,-2.2422 0.805,0 1.442,0.3242 1.922,0.8047 0.484,0.3203 0.645,1.5976 0.801,3.8398 0.16,3.2032 0.32,7.2071 0.32,12.1719 v 23.375 c 0,4.0039 -0.16,6.4063 -0.32,7.2031 -0.156,0.4805 -0.317,0.8047 -0.801,0.9649 -0.316,0.1562 -1.922,0.4804 -5.117,0.6406 v 2.5586 c 4.16,-0.1563 7.355,-0.3164 9.922,-0.3164 3.515,0 7.035,0.1601 10.719,0.3164 z m -28.485,21.7734 h -1.601 l -5.278,0.1602 c -1.441,0 -3.359,0 -5.758,-0.1602 -1.601,2.0821 -4.324,5.4414 -8.164,10.086 -3.043,3.5273 -5.754,6.7304 -8.48,9.4495 -0.316,0.32 -0.481,0.64 -0.637,0.64 -0.16,0.16 -0.32,0.16 -0.32,0.16 -0.317,0 -0.641,-0.16 -0.641,-0.48 -0.16,-0.16 -0.16,-0.961 -0.16,-2.402 l 0.16,-9.1292 c 0,-2.7188 0.16,-4.3204 0.324,-4.6407 0.157,-0.3203 0.317,-0.4765 0.637,-0.6445 0.321,-0.1602 1.762,-0.3164 4.156,-0.4766 v -2.5625 c -2.878,0.1602 -6.238,0.1602 -9.918,0.1602 -1.753,0 -4.964,0 -9.441,-0.1602 v 2.5625 c 2.402,0.1602 3.844,0.3164 4.16,0.4766 0.16,0.168 0.317,0.168 0.485,0.3242 0.156,0.3203 0.316,0.961 0.476,1.918 0.16,1.6055 0.32,4.4883 0.32,8.8086 v 11.5276 c 0,3.523 0,6.562 -0.16,9.129 0,2.398 -0.16,3.839 -0.48,4.164 0,0.316 -0.324,0.476 -0.481,0.64 -0.476,0.16 -1.918,0.317 -4.32,0.477 v 2.562 c 3.684,-0.16 6.887,-0.16 9.762,-0.16 3.359,0 6.562,0 9.597,0.16 v -2.562 c -2.558,-0.16 -4,-0.477 -4.316,-0.641 -0.477,-0.316 -0.641,-0.957 -0.801,-1.922 0,-1.281 -0.16,-6.402 -0.16,-15.371 h 0.484 c 2.075,1.762 4.958,4.489 8.797,8.328 3.84,3.844 6.879,7.043 8.961,9.606 v 1.125 1.117 l 0.16,0.32 c 2.239,-0.16 4.157,-0.16 5.758,-0.16 1.602,0 3.36,0 5.442,0.16 v -2.562 l -1.758,-0.16 c -1.281,-0.157 -2.242,-0.317 -2.563,-0.481 -0.797,-0.316 -1.922,-1.117 -3.363,-2.242 -1.918,-1.754 -4.476,-4 -7.68,-6.883 l -5.277,-5.121 2.719,-3.527 c 3.359,-4.004 7.203,-8.4846 11.84,-13.7697 2.558,-2.8789 4.16,-4.4805 4.64,-4.8047 0.477,-0.1602 1.442,-0.3164 2.879,-0.4766 z m -16,-61.4843 c -1.762,-0.3204 -3.519,-0.3204 -5.277,-0.3204 -1.117,0 -3.36,0 -6.563,0.1641 -3.039,0 -5.918,0 -8.476,0 -3.364,0 -6.887,0 -10.563,-0.1641 v 1.6016 c 0.961,0.4805 2.078,1.1211 2.879,1.7578 0.481,3.2031 0.641,9.7735 0.641,19.8594 0,6.8789 -0.16,11.5273 -0.16,13.7695 -0.161,1.1172 -0.317,1.918 -0.641,2.2422 -0.477,0.3164 -1.918,0.6406 -4.645,0.8008 v 2.5586 c 4.805,-0.1563 8.645,-0.3164 11.372,-0.3164 l 16.793,0.1601 c 1.757,0 3.363,0 4.64,-0.1601 l 0.32,-0.3242 c -0.476,-2.2422 -0.796,-5.1211 -0.96,-8.8086 h -2.399 c -0.16,2.8867 -0.32,4.4883 -0.48,4.8047 0,0.1601 -0.481,0.3242 -1.282,0.4804 -1.757,0.3242 -4.32,0.6446 -7.679,0.6446 -1.758,0 -3.684,-0.1641 -5.918,-0.3204 -0.324,-6.25 -0.481,-11.2109 -0.481,-14.8906 2.078,-0.1601 4.16,-0.1601 6.082,-0.1601 2.719,0 4.477,0 4.953,0.1601 0.481,0.1602 0.649,0.4766 0.809,0.9571 0.156,0.3203 0.316,1.6054 0.477,3.8476 h 2.558 c -0.156,-3.5273 -0.156,-5.7656 -0.156,-6.7305 l 0.156,-6.8828 h -2.558 c -0.161,2.7227 -0.321,4.1641 -0.637,4.6446 -0.168,0.1601 -0.324,0.4765 -0.805,0.4765 -0.961,0.3242 -3.199,0.3242 -6.879,0.3242 -0.961,0 -2.402,0 -3.843,-0.164 0,-1.1172 0,-2.0781 0,-3.2031 0,-5.7618 0,-10.2422 0.324,-13.4454 h 5.918 c 3.359,0 6.562,0.1602 9.441,0.4766 0.481,1.9258 0.957,4.0039 1.442,6.4063 h 2.402 c -0.32,-3.5196 -0.645,-7.043 -0.805,-10.2461 z M 486.227,123.047 c -2.719,-0.16 -4.325,-0.317 -4.641,-0.641 -0.32,-0.316 -0.481,-0.957 -0.641,-1.922 -0.16,-1.918 -0.32,-5.921 -0.32,-11.847 0,-7.848 0.16,-13.2893 0.16,-16.4886 0,-3.0468 0.16,-4.9648 0.481,-5.4453 0.16,-0.3203 0.476,-0.4765 0.8,-0.6445 0.477,-0.1602 1.762,-0.3164 4.161,-0.4766 v -2.5625 l -3.524,0.1602 c -2.234,0 -4.32,0 -6.078,0 l -10.242,-0.1602 v 2.5625 c 2.887,0.1602 4.48,0.3164 4.805,0.6446 0.32,0.3164 0.476,1.1172 0.636,2.3984 0.164,2.7188 0.164,7.6836 0.164,15.047 0,2.726 0,6.73 0,12.012 -0.164,3.683 -0.164,5.605 -0.324,5.921 -0.156,0.485 -0.316,0.641 -0.641,0.801 -0.476,0.324 -1.918,0.481 -4.64,0.641 v 2.562 c 4.164,-0.16 7.363,-0.32 9.601,-0.32 3.84,0 7.2,0.16 10.243,0.32 z M 467.984,61.2461 c -2.718,-0.1602 -4.316,-0.3242 -4.64,-0.6406 -0.317,-0.3203 -0.477,-0.9649 -0.641,-1.9219 -0.152,-1.9258 -0.32,-5.9258 -0.32,-11.8516 0,-7.8437 0.168,-13.2851 0.168,-16.4882 0,-3.043 0.152,-4.9688 0.476,-5.4454 0.161,-0.3242 0.481,-0.4804 0.797,-0.6406 0.485,-0.1601 1.762,-0.3203 4.16,-0.4765 v -2.5665 l -3.519,0.1641 c -2.238,0 -4.32,0 -6.082,0 l -10.238,-0.1641 v 2.5665 c 2.878,0.1562 4.484,0.3164 4.8,0.6367 0.321,0.3203 0.485,1.1211 0.645,2.3984 0.156,2.7227 0.156,7.6914 0.156,15.0547 0,2.7187 0,6.7227 0,12.0078 -0.156,3.6797 -0.156,5.6055 -0.316,5.9258 -0.164,0.4805 -0.325,0.6406 -0.649,0.8008 -0.476,0.3164 -1.918,0.4804 -4.636,0.6406 v 2.5586 c 4.16,-0.1563 7.359,-0.3164 9.597,-0.3164 3.844,0 7.199,0.1601 10.242,0.3164 z M 427.66,104.797 c -3.676,4.32 -6.715,8.008 -8.961,11.047 v -11.688 c 0,-3.367 0,-7.2029 0.168,-11.6912 0,-3.3632 0.156,-5.2812 0.481,-5.7617 0,-0.1601 0.156,-0.4765 0.316,-0.4765 0.477,-0.3282 1.922,-0.4844 4.481,-0.6446 v -2.5625 c -3.36,0.1602 -5.598,0.1602 -7.04,0.1602 -1.281,0 -3.675,0 -7.519,-0.1602 v 2.5625 c 2.394,0.1602 3.844,0.3164 4.32,0.4766 0.16,0.168 0.481,0.4844 0.641,0.8086 0.156,0.4766 0.32,2.2344 0.32,5.1211 0.156,4.8047 0.156,8.4847 0.156,10.8867 v 12.969 c 0,3.359 -0.156,5.285 -0.32,5.761 -0.156,0.325 -0.316,0.641 -0.637,0.801 -0.32,0.164 -1.921,0.481 -4.48,0.641 v 2.562 c 3.195,-0.16 5.437,-0.16 7.039,-0.16 1.758,0 3.68,0 5.762,0.16 4.633,-5.921 9.918,-12.488 15.84,-19.375 3.839,-4.64 7.199,-8.484 10.078,-11.527 v 12.008 c 0,4.488 -0.16,8.484 -0.16,11.851 -0.161,1.918 -0.317,3.039 -0.477,3.524 -0.164,0.316 -0.48,0.48 -0.805,0.48 -0.32,0.16 -1.593,0.317 -4.16,0.477 v 2.562 c 2.242,-0.16 4.324,-0.16 6.567,-0.16 3.035,0 5.753,0 8.152,0.16 v -2.562 c -2.234,-0.16 -3.676,-0.317 -4.156,-0.477 -0.161,-0.164 -0.485,-0.324 -0.637,-0.48 -0.168,-0.16 -0.324,-0.32 -0.324,-0.641 -0.16,-0.48 -0.16,-2.082 -0.325,-4.648 v -12.168 l -0.156,-12.1682 c 0,-3.3632 0.156,-6.5664 0.321,-9.9257 l -0.481,-0.3203 c -2.394,0.3203 -4.16,0.6367 -5.121,0.8007 -5.277,5.7657 -11.52,12.9727 -18.883,21.7775 z m -2.074,-83.5822 h -1.602 l -5.437,0.1641 c -1.442,0 -3.359,0 -5.602,-0.1641 -1.601,2.0821 -4.476,5.4454 -8.32,10.086 -2.883,3.5234 -5.602,6.7265 -8.32,9.4453 -0.321,0.3242 -0.641,0.6406 -0.801,0.6406 0,0 -0.16,0.1602 -0.316,0.1602 -0.325,0 -0.485,-0.1602 -0.641,-0.4766 0,-0.1601 0,-0.9609 0,-2.4023 v -9.1289 c 0.156,-2.7227 0.156,-4.3243 0.316,-4.6407 0.16,-0.3242 0.325,-0.4804 0.641,-0.6406 0.48,-0.1601 1.918,-0.3203 4.32,-0.4765 v -2.5665 c -3.039,0.1641 -6.238,0.1641 -9.922,0.1641 -1.918,0 -4.961,0 -9.437,-0.1641 v 2.5665 c 2.394,0.1562 3.836,0.3164 4,0.4765 0.32,0.1602 0.476,0.1602 0.476,0.3164 0.325,0.3242 0.481,0.9649 0.645,1.9258 0.156,1.6016 0.316,4.4805 0.316,8.8047 V 46.832 c 0,3.5235 0,6.5664 -0.16,9.1289 -0.156,2.3985 -0.32,3.8438 -0.476,4.1602 -0.164,0.3242 -0.325,0.4844 -0.641,0.6406 -0.324,0.1602 -1.766,0.3242 -4.16,0.4844 v 2.5586 c 3.519,-0.1563 6.879,-0.1563 9.601,-0.1563 3.52,0 6.719,0 9.758,0.1563 v -2.5586 c -2.558,-0.1602 -4.004,-0.4844 -4.48,-0.6406 -0.321,-0.3203 -0.641,-0.9649 -0.641,-1.9219 -0.156,-1.2852 -0.156,-6.4063 -0.156,-15.3711 h 0.316 c 2.078,1.7617 5.121,4.4805 8.961,8.3242 3.844,3.8438 6.719,7.0469 8.805,9.6094 v 1.1172 1.125 l 0.316,0.3164 c 2.243,-0.1563 4.16,-0.1563 5.602,-0.1563 1.758,0 3.519,0 5.598,0.1563 v -2.5586 l -1.758,-0.1602 c -1.442,-0.164 -2.246,-0.3242 -2.723,-0.4804 -0.797,-0.3203 -1.922,-1.1211 -3.199,-2.2461 -2.078,-1.7578 -4.641,-4.0039 -7.68,-6.8828 l -5.445,-5.125 2.887,-3.5196 c 3.199,-4.0039 7.203,-8.4843 11.679,-13.7695 2.719,-2.8867 4.321,-4.4883 4.797,-4.8047 0.324,-0.1601 1.281,-0.3203 2.883,-0.4765 z m -58.242,68.211 c 0,-1.7656 0.324,-2.8828 0.64,-3.1992 0.477,-0.168 1.918,-0.4844 4.637,-0.6446 v -2.5625 l -3.519,0.1602 c -2.239,0 -4.317,0 -6.079,0 l -10.242,-0.1602 v 2.5625 c 2.723,0.1602 4.16,0.3164 4.485,0.4766 0.316,0.3242 0.64,0.8086 0.797,1.4453 0.16,1.1211 0.32,4.0039 0.32,8.4883 l -0.16,16.4878 c 0,5.606 0,8.649 -0.317,9.29 0,0.32 -0.164,0.476 -0.48,0.636 -0.321,0.324 -1.922,0.481 -4.645,0.641 v 2.562 c 4.004,-0.16 7.203,-0.16 9.602,-0.16 3.68,0 7.195,0 10.238,0.16 v -2.562 c -2.394,-0.16 -4,-0.317 -4.316,-0.477 -0.321,-0.164 -0.485,-0.324 -0.637,-0.64 -0.164,-0.325 -0.324,-1.602 -0.48,-3.52 0,-2.887 -0.168,-5.769 -0.168,-8.808 v -2.567 c 2.082,-0.16 5.445,-0.16 10.085,-0.16 4.004,0 7.04,0 8.958,0.16 0,6.57 0,10.891 -0.161,13.129 -0.16,1.125 -0.316,1.926 -0.636,2.082 -0.481,0.484 -2.082,0.641 -4.801,0.801 v 2.562 c 4.957,-0.16 8.48,-0.16 10.238,-0.16 3.043,0 6.238,0 9.602,0.16 v -2.562 c -2.563,-0.16 -4,-0.317 -4.485,-0.641 -0.156,0 -0.476,-0.316 -0.476,-0.476 -0.156,-0.481 -0.321,-2.086 -0.481,-4.965 -0.16,-4.324 -0.16,-8.004 -0.16,-10.731 l 0.16,-13.7692 c 0,-3.039 0.16,-4.8046 0.325,-5.2812 0.156,-0.4805 0.316,-0.8008 0.632,-1.125 0.328,-0.1602 1.922,-0.3164 4.485,-0.4766 v -2.5625 l -3.364,0.1602 c -2.554,0 -4.48,0 -5.918,0 -3.039,0 -6.558,0 -10.558,-0.1602 v 2.5625 c 2.719,0.1602 4.32,0.3164 4.637,0.6446 0.32,0.3164 0.64,1.1172 0.64,2.3984 0.16,2.4023 0.321,7.207 0.321,14.73 -2.239,0 -4.797,0.161 -7.524,0.161 -4.316,0 -8.156,-0.161 -11.519,-0.161 v -2.082 c 0,-5.2808 0.168,-9.2847 0.324,-11.8472 z M 350.863,24.8984 c -3.363,-2.8828 -7.84,-4.3281 -13.441,-4.3281 -2.559,0 -4.801,0.3242 -6.879,0.8086 -2.082,0.4766 -4.16,1.2774 -6.398,2.4024 0.32,1.4335 0.64,2.7187 0.64,3.8359 0.156,1.6016 0.317,3.6836 0.317,6.4062 h 2.718 c 0,-2.8789 0,-4.6445 0.325,-5.2812 0.156,-0.4805 0.632,-1.125 1.597,-1.9258 1.117,-0.9609 2.403,-1.6016 3.844,-2.0781 1.594,-0.4805 3.195,-0.8008 4.961,-0.8008 2.879,0 5.113,0.8008 6.879,2.2383 1.594,1.6015 2.402,3.3633 2.402,5.7695 0,2.0781 -0.484,3.6797 -1.605,4.6406 -1.121,1.1211 -3.356,1.9219 -6.559,2.4024 -4.801,0.8008 -8.004,1.4414 -9.601,2.2383 -1.762,0.8047 -3.043,2.0859 -4,3.6875 -0.961,1.6015 -1.438,3.5195 -1.438,5.7617 0,3.8476 1.277,7.043 3.996,9.7695 2.723,2.5625 7.043,3.8438 12.805,3.8438 2.398,0 4.316,-0.1641 6.234,-0.4844 1.766,-0.3164 3.524,-0.7969 5.285,-1.6016 l 0.317,-0.8008 c -0.317,-1.2812 -0.481,-2.4023 -0.641,-3.5195 -0.16,-0.9648 -0.316,-2.7226 -0.316,-5.2851 h -2.719 c 0,3.2031 -0.16,4.8007 -0.484,5.2851 -0.317,0.6367 -1.274,1.2774 -2.879,2.082 -1.598,0.7969 -3.356,1.1211 -5.278,1.1211 -2.882,0 -4.961,-0.6406 -6.558,-2.0859 -1.442,-1.2812 -2.242,-3.0391 -2.242,-5.1211 0,-1.2812 0.32,-2.4023 0.96,-3.3594 0.641,-0.9648 1.442,-1.7656 2.559,-2.0859 1.117,-0.4805 3.516,-1.1172 7.203,-1.6016 3.356,-0.4804 5.754,-0.957 6.875,-1.5976 1.918,-0.6446 3.52,-1.9219 4.477,-3.5235 0.961,-1.6015 1.441,-3.6836 1.441,-6.0859 0,-4.3242 -1.597,-7.8477 -4.797,-10.7266 z m -44.64,68.2071 c -2.082,3.3633 -3.039,7.2075 -3.039,11.5275 0,6.406 2.238,11.531 6.718,15.531 4.477,4.008 10.563,5.926 18.399,5.926 2.558,0 5.285,-0.16 7.844,-0.641 2.554,-0.476 4.96,-1.117 7.515,-2.078 l 0.324,-0.484 c -0.476,-1.117 -0.64,-2.082 -0.8,-3.199 -0.317,-1.762 -0.481,-3.844 -0.641,-6.567 h -2.559 c -0.16,3.203 -0.16,4.965 -0.32,5.289 -0.16,0.317 -0.641,0.957 -1.766,1.594 -0.957,0.801 -2.234,1.445 -3.996,1.926 -1.597,0.476 -3.519,0.64 -5.601,0.64 -4.801,0 -8.637,-1.441 -11.52,-4.484 -2.879,-2.887 -4.32,-7.047 -4.32,-12.488 0,-5.7621 1.762,-10.4066 5.121,-14.0902 3.199,-3.207 7.52,-4.9648 13.121,-4.9648 2.242,0 4.16,0.3242 6.078,0.8008 1.766,0.3164 3.844,1.1171 6.086,2.2421 l 0.793,-0.6445 c -0.476,-1.1172 -0.957,-2.0742 -1.437,-3.1992 -2.239,-1.1211 -4.485,-2.0859 -6.719,-2.5625 -2.082,-0.4805 -4.645,-0.8008 -7.52,-0.8008 -5.285,0 -9.761,0.9609 -13.445,2.8789 -3.676,1.7656 -6.394,4.4883 -8.316,7.8477 z M 284.785,74.5313 c 0,-0.6407 -0.16,-1.1172 -0.644,-1.6016 -0.317,-0.4766 -1.602,-1.2774 -3.676,-2.2344 l -7.527,-4.0039 h -3.036 l 7.039,6.7227 c 1.758,1.6015 2.879,2.5625 3.364,2.8789 0.636,0.3242 1.277,0.4804 1.918,0.4804 0.636,0 1.285,-0.1562 1.761,-0.6406 0.481,-0.4765 0.801,-0.9609 0.801,-1.6015 z m -4.805,32.1837 c 2.879,0 4.645,0 5.122,0.16 0.324,0.16 0.64,0.484 0.8,0.961 0,0.324 0.161,1.602 0.321,3.844 h 2.718 c -0.156,-3.52 -0.156,-5.762 -0.156,-6.723 l 0.156,-6.8867 h -2.718 c -0.16,2.7187 -0.321,4.1677 -0.481,4.6447 -0.16,0.16 -0.476,0.48 -0.801,0.48 -1.117,0.321 -3.359,0.321 -6.878,0.321 -1.122,0 -2.399,0 -3.844,-0.161 -0.156,-1.117 -0.156,-2.082 -0.156,-3.203 0,-5.7653 0.156,-10.2457 0.316,-13.4489 h 6.086 c 3.359,0 6.555,0.1641 9.277,0.4805 0.477,1.918 0.961,4.0039 1.442,6.4023 h 2.562 c -0.484,-3.5234 -0.801,-7.0429 -0.801,-10.2461 -1.761,-0.3203 -3.683,-0.3203 -5.285,-0.3203 -1.117,0 -3.359,0 -6.562,0.1602 -3.035,0 -5.918,0 -8.477,0 -3.359,0 -6.879,0 -10.719,-0.1602 v 1.6016 c 1.121,0.4805 2.082,1.1211 3.039,1.7617 0.317,3.2031 0.481,9.7656 0.481,19.8512 0,6.887 0,11.532 -0.164,13.77 0,1.125 -0.156,1.926 -0.641,2.242 -0.316,0.324 -1.758,0.641 -4.476,0.801 v 2.562 c 4.8,-0.16 8.636,-0.32 11.363,-0.32 l 16.637,0.16 c 1.761,0 3.363,0 4.804,-0.16 l 0.157,-0.316 c -0.321,-2.243 -0.641,-5.129 -0.957,-8.809 h -2.403 c 0,2.879 -0.164,4.481 -0.316,4.805 -0.164,0.16 -0.641,0.32 -1.442,0.48 -1.601,0.321 -4.16,0.641 -7.679,0.641 -1.606,0 -3.684,-0.16 -5.926,-0.32 -0.16,-6.247 -0.316,-11.207 -0.477,-14.895 2.243,-0.16 4.321,-0.16 6.078,-0.16 z m 19.524,-45.4689 c -2.242,-0.1602 -3.684,-0.3242 -4.16,-0.4844 -0.164,-0.1562 -0.481,-0.3164 -0.641,-0.4765 -0.164,-0.1641 -0.164,-0.3204 -0.316,-0.6446 -0.164,-0.4804 -0.164,-2.082 -0.164,-4.6406 l -0.16,-12.168 V 30.6602 c 0,-3.3594 0,-6.5625 0.16,-9.9258 l -0.477,-0.3203 c -2.402,0.3203 -4.168,0.6406 -5.125,0.8007 -5.113,5.7618 -11.516,12.9688 -18.879,21.7735 -3.683,4.3281 -6.719,8.0078 -8.961,11.0508 V 42.3477 c 0,-3.3594 0,-7.1993 0.16,-11.6875 0,-3.3594 0.164,-5.2852 0.481,-5.7618 0,-0.1601 0.16,-0.4804 0.48,-0.4804 0.321,-0.3203 1.758,-0.4805 4.321,-0.6367 v -2.5665 c -3.364,0.1641 -5.598,0.1641 -7.043,0.1641 -1.282,0 -3.676,0 -7.516,-0.1641 v 2.5665 c 2.399,0.1562 3.84,0.3164 4.316,0.4765 0.321,0.1602 0.481,0.4805 0.641,0.8008 0.16,0.4805 0.317,2.2422 0.317,5.1211 0.164,4.8047 0.164,8.4883 0.164,10.8906 v 12.9688 c 0,3.3593 -0.164,5.2812 -0.321,5.7656 -0.16,0.3164 -0.32,0.6406 -0.636,0.8008 -0.325,0.1562 -1.922,0.4804 -4.481,0.6406 v 2.5586 c 3.195,-0.1563 5.438,-0.1563 7.035,-0.1563 1.766,0 3.684,0 5.766,0.1563 4.637,-5.9219 9.914,-12.4922 15.84,-19.3711 3.836,-4.6445 7.195,-8.4922 10.078,-11.5313 v 12.0118 c 0,4.4804 -0.164,8.4843 -0.164,11.8437 -0.16,1.9258 -0.317,3.0469 -0.477,3.5274 -0.164,0.3203 -0.316,0.4765 -0.801,0.4765 -0.32,0.1602 -1.597,0.3242 -4.156,0.4844 v 2.5586 c 2.235,-0.1563 4.317,-0.1563 6.559,-0.1563 3.043,0 5.758,0 8.16,0.1563 z m -51.203,54.1169 c -0.16,3.364 -0.321,5.282 -0.481,5.442 -0.16,0.324 -0.48,0.484 -0.961,0.484 -1.593,0.316 -4.796,0.481 -9.597,0.481 -0.481,0 -0.641,-0.165 -0.801,-0.321 0,0 -0.156,-0.644 -0.156,-1.605 l -0.16,-20.3323 c 0,-5.9258 0.16,-9.4492 0.16,-10.8867 0.156,-1.2812 0.316,-2.082 0.797,-2.3984 0.16,-0.168 1.761,-0.4844 4.636,-0.6446 v -2.5625 c -2.875,0.1602 -6.074,0.1602 -9.437,0.1602 -4.317,0 -7.844,0 -10.563,-0.1602 v 2.5625 c 1.121,0 2.242,0.1602 3.52,0.3164 0.64,0 0.965,0.3282 1.281,0.4844 0.32,0.1602 0.481,0.6406 0.481,1.2774 0.164,0.8007 0.324,4.0039 0.48,9.6093 0,3.8435 0,7.8435 0,12.0075 0,8.008 0,12.172 0,12.328 -0.156,0 -0.801,0.165 -2.242,0.165 -2.719,0 -5.117,-0.165 -7.199,-0.321 -1.121,0 -1.758,-0.16 -1.922,-0.16 -0.157,-0.16 -0.317,-0.32 -0.317,-0.644 -0.16,-0.161 -0.324,-1.918 -0.64,-5.282 h -2.559 c 0,3.84 0,7.207 -0.32,9.926 l 0.32,0.32 c 6.402,-0.32 12.637,-0.48 18.563,-0.48 6.078,0 12.796,0.16 20.16,0.48 l 0.32,-0.48 c -0.32,-2.723 -0.644,-6.086 -0.805,-9.766 z m -58.559,0.321 c 0,3.683 -0.164,5.605 -0.324,5.921 0,0.485 -0.316,0.641 -0.641,0.801 -0.316,0.324 -1.918,0.481 -4.48,0.641 v 2.562 c 4.164,-0.16 7.363,-0.32 9.441,-0.32 3.844,0 7.36,0.16 10.403,0.32 v -2.562 c -2.719,-0.16 -4.321,-0.317 -4.637,-0.641 -0.484,-0.316 -0.641,-0.957 -0.805,-1.922 -0.16,-1.918 -0.16,-5.921 -0.16,-11.847 0,-7.848 0,-13.2893 0,-16.4886 0.16,-3.0468 0.324,-4.9648 0.641,-5.4453 0,-0.3203 0.324,-0.4765 0.8,-0.6445 0.317,-0.1602 1.758,-0.3164 4.161,-0.4766 v -2.5625 l -3.68,0.1602 c -2.242,0 -4.16,0 -6.082,0 l -10.082,-0.1602 v 2.5625 c 2.723,0.1602 4.324,0.3164 4.644,0.6446 0.317,0.3164 0.637,1.1172 0.637,2.3984 0.164,2.7188 0.324,7.6836 0.324,15.047 0,2.726 -0.16,6.73 -0.16,12.012 z m 39.684,-94.4692 c -3.367,0.1641 -6.567,0.1641 -9.446,0.1641 -3.519,0 -6.718,0 -9.921,-0.1641 v 2.5665 c 2.402,0.1562 3.843,0.1562 4.16,0.3164 0.32,0.3203 0.484,0.6406 0.484,0.9609 0,0.4805 -0.324,1.7578 -1.281,4.0039 l -1.918,5.1211 c -2.563,0.1641 -5.281,0.1641 -8.481,0.1641 -2.562,0 -5.125,0 -7.203,-0.1641 l -1.441,-3.5234 c -0.32,-0.7969 -0.801,-2.2383 -1.277,-4.1602 -0.164,-0.4844 -0.164,-0.8008 -0.164,-1.125 0,-0.4766 0.164,-0.8008 0.48,-0.957 0.477,-0.3203 1.926,-0.4805 4.32,-0.6367 v -2.5665 c -1.918,0.1641 -4.48,0.1641 -7.355,0.1641 -2.883,0 -5.125,0 -6.723,-0.1641 v 2.7227 c 1.922,0.1602 3.039,0.3203 3.524,0.6367 0.316,0.1641 0.796,0.9649 1.437,2.2422 1.281,2.7227 2.719,6.2461 4.637,11.0508 l 10.726,26.2578 h 4.477 l 13.762,-32.6602 c 1.757,-4.164 2.879,-6.4062 3.351,-6.8906 0.324,-0.3164 1.61,-0.6367 3.852,-0.7929 z m -55.367,62.2813 c -1.914,-0.3164 -3.676,-0.4766 -5.282,-0.4766 l -10.879,0.1602 h -4.96 c -2.239,0 -5.594,0 -9.758,-0.1602 v 1.6016 c 1.121,0.4805 2.242,1.1211 3.199,1.7617 0.16,5.6055 0.32,11.211 0.32,17.2892 0,4.648 0,8.969 -0.16,13.129 0,3.043 -0.16,4.648 -0.324,5.129 -0.16,0.316 -0.317,0.476 -0.641,0.64 -0.316,0 -1.758,0.317 -4.476,0.477 v 2.562 c 4,-0.16 7.519,-0.16 10.879,-0.16 3.203,0 6.246,0 9.121,0.16 v -2.562 c -2.719,-0.16 -4.317,-0.477 -4.797,-0.801 -0.156,-0.156 -0.481,-0.476 -0.481,-0.957 -0.16,-0.644 -0.16,-3.848 -0.324,-9.926 l -0.152,-14.7302 c 0,-2.7265 0,-5.9297 0.152,-9.6094 2.727,-0.1562 4.641,-0.1562 5.918,-0.1562 3.844,0 7.043,0.1562 9.606,0.793 0.64,1.7656 1.125,4.0039 1.601,6.5703 h 2.715 c -0.477,-2.8867 -0.957,-6.4063 -1.277,-10.7344 z M 155.98,31.6211 c -2.562,-3.6797 -5.761,-6.4063 -9.441,-8.0039 -3.68,-1.6016 -7.676,-2.4024 -12,-2.4024 l -11.359,0.1641 c -1.926,0 -4.641,0 -8.321,-0.1641 v 1.6016 c 1.442,0.8008 2.403,1.4414 2.879,1.7578 0.325,3.5274 0.481,10.25 0.481,20.0156 0,4.1641 0,7.6875 -0.156,10.5704 0,2.8828 -0.165,4.4804 -0.325,4.9609 -0.16,0.1641 -0.32,0.3242 -0.476,0.3242 -0.324,0.1602 -1.758,0.4766 -4.485,0.8008 v 2.5586 c 3.043,-0.1563 6.563,-0.1563 10.563,-0.1563 l 14.879,0.1563 c 5.437,0 9.601,-0.6406 12.48,-2.082 2.719,-1.2774 4.961,-3.5196 6.723,-6.2422 1.598,-2.8828 2.398,-6.2461 2.398,-10.4063 0,-5.1289 -1.281,-9.6094 -3.84,-13.4531 z M 90.6992,88.1445 c -4,3.8438 -5.9179,9.125 -5.9179,15.8515 0,4.641 0.957,8.645 2.875,12.012 1.9179,3.195 4.4843,5.762 8.0039,7.523 3.3593,1.758 7.6798,2.559 13.1168,2.559 5.118,0 9.286,-0.801 12.645,-2.399 3.195,-1.761 5.758,-4.164 7.519,-7.046 1.758,-3.04 2.719,-6.727 2.719,-11.047 0,-4.809 -1.117,-8.9652 -3.043,-12.3324 -1.918,-3.5195 -4.637,-6.082 -8.156,-8.0078 -3.523,-1.918 -7.684,-2.8789 -12.645,-2.8789 -7.519,0 -13.2808,1.9219 -17.1168,5.7656 z M 88.1367,36.75 c -0.9609,-0.3242 -1.7578,-0.6445 -2.5586,-1.125 -0.3203,-1.918 -0.4804,-3.6797 -0.4804,-5.1211 0,-1.125 0.1601,-3.0469 0.4804,-6.0859 -4,-1.6016 -7.3593,-2.5625 -10.082,-3.0391 -2.7188,-0.4844 -5.4375,-0.8086 -8.3203,-0.8086 -7.8399,0 -13.918,2.086 -18.4024,6.0899 -4.4765,4.1601 -6.5546,9.2812 -6.5546,15.8515 0,6.5625 2.2382,11.8438 6.7148,15.8477 4.4844,4.0039 10.8867,5.9297 19.3633,5.9297 3.0429,0 5.7617,-0.1641 8.4804,-0.6407 2.879,-0.4843 5.4415,-1.125 7.8399,-2.0859 l 0.3203,-0.4766 c -0.6406,-2.5664 -0.957,-5.7617 -1.2812,-9.6093 h -2.5586 c 0,1.9218 -0.1602,3.6836 -0.4844,5.125 -1.2774,1.4414 -2.875,2.5586 -4.9531,3.3632 -1.9219,0.7969 -4.3204,1.1211 -7.2032,1.1211 -5.1172,0 -9.2773,-1.6015 -12.3203,-4.8046 C 52.9414,53.2383 51.5,48.9141 51.5,43.4727 c 0,-5.9219 1.5938,-10.5704 4.7969,-14.2539 3.1992,-3.5196 7.1992,-5.2813 12,-5.2813 2.5625,0 5.2773,0.6367 8,1.7617 0.164,1.6016 0.3203,3.043 0.3203,4.4805 0,3.2031 -0.1563,4.8047 -0.4805,5.125 -0.4765,0.3203 -2.5625,0.6367 -6.5547,0.8008 v 2.5625 c 3.6758,-0.1602 7.0352,-0.1602 9.9141,-0.1602 2.5625,0 5.4414,0 8.6406,0.1602 z m -41.4375,80.852 c -0.1601,2.726 -0.3203,4.328 -0.6445,4.644 -0.3164,0.324 -1.1172,0.484 -2.7149,0.641 l -1.6015,0.16 v 2.562 l 3.3594,-0.16 c 2.0781,0 3.8359,0 5.1211,0 1.5976,0 4.4804,0 8.1601,0.16 2.082,0 3.6758,0 4.6406,0 3.6797,0 6.2383,-0.32 7.9961,-0.961 1.7617,-0.64 3.043,-1.761 4.0039,-3.199 0.8008,-1.285 1.2774,-3.039 1.2774,-5.125 0,-3.844 -1.2774,-6.886 -4.0039,-9.449 -2.5586,-2.559 -6.0742,-3.844 -10.0742,-3.844 -0.6407,0 -1.1211,0 -1.7579,0.164 -0.4804,0 -1.125,0.16 -1.7578,0.321 -0.4843,0.64 -0.8008,1.441 -1.125,2.082 l 0.6407,0.8 c 0.4843,-0.164 0.8007,-0.164 1.2773,-0.324 0.3242,0 0.6406,0 0.9648,0 2.0782,0 3.6758,0.641 4.9532,2.086 1.2851,1.442 2.0859,3.36 2.0859,5.922 0,2.719 -0.8008,4.961 -2.0859,6.246 -1.2774,1.442 -3.3594,2.078 -5.918,2.078 -0.957,0 -2.2383,-0.16 -3.6797,-0.316 -0.1562,-6.246 -0.3203,-11.527 -0.3203,-15.856 0,-1.601 0.1641,-6.082 0.3203,-13.9293 0,-3.2031 0.1602,-4.9609 0.1602,-5.4375 0.1601,-0.3242 0.3203,-0.4844 0.6406,-0.6406 0.4766,-0.3282 2.2383,-0.4844 5.1211,-0.6446 v -2.5625 c -3.5195,0.1602 -6.5625,0.1602 -8.961,0.1602 -1.1171,0 -4.8007,0 -11.039,-0.1602 v 2.5625 c 2.4023,0.1602 3.6797,0.3164 4,0.6446 0.3164,0 0.4765,0.3164 0.4765,0.6406 0.3243,0.4766 0.4844,2.5586 0.4844,6.2383 0.1563,3.6875 0.1563,7.2075 0.1563,10.7265 0,6.406 0,11.051 -0.1563,13.77 z m 49.5039,168.57 41.6329,-10.094 0.047,-0.008 c 0.226,-1.984 0.547,-3.703 0.961,-5.207 0.011,-0.039 0.027,-0.074 0.039,-0.109 H 82.6133 Z m 40.8989,59.141 c 0.003,-9.118 0.679,-14.879 2.218,-19.11 1.774,-5.09 5.082,-9.648 9.86,-13.562 1.539,-1.243 3.398,-2.469 5.57,-3.664 h -17.332 v -10.7 l -14.352,24.274 z m 114.484,-19.11 c 1.769,-5.09 5.074,-9.644 9.859,-13.562 1.535,-1.243 3.399,-2.469 5.571,-3.664 H 252.02 c -0.793,2.746 -1.805,5.062 -3.04,6.984 -2.656,4.141 -7.093,7.863 -13.457,11.266 h 15.715 c 0.11,-0.352 0.227,-0.688 0.348,-1.024 z m 110.836,1.024 v -13.356 c -0.367,0.738 -0.762,1.434 -1.184,2.09 -2.668,4.16 -7.121,7.883 -13.488,11.266 z m 108.402,-37.774 c 1.918,2.067 3.531,4.406 4.828,6.992 v -10.218 c -0.308,-5.836 0.305,-10.973 1.711,-15.473 h -53.847 v 9.262 h 20.14 c 6.496,0 11.403,0.668 15.074,1.961 4.395,1.32 8.387,3.757 12.094,7.476 z m 102.25,88.078 c -2.578,1.008 -7.621,2.344 -21.629,2.344 h -41.156 c -17.773,0 -29.211,-7.344 -33.133,-20.988 -1.586,5.312 -4.281,9.758 -8.074,13.293 -3.227,2.988 -7.246,5.062 -11.465,6.054 -3.773,1.137 -8.476,1.641 -15.238,1.641 h -79.957 v -15.324 c -1.582,3.047 -3.727,5.754 -6.484,8.14 -3.567,2.899 -7.329,4.84 -11.911,6.039 -3.644,0.766 -8.875,1.145 -15.984,1.145 h -41.578 c -7.051,0 -12.07,-0.441 -15.813,-1.375 -4.468,-1.117 -8.218,-3.012 -11.597,-5.918 -3.313,-2.969 -5.793,-6.769 -7.446,-11.371 -0.015,0.055 -0.031,0.102 -0.046,0.156 -1.622,4.379 -4.204,8.129 -7.68,11.153 -3.285,2.847 -7.336,4.957 -12.113,6.21 -3.649,0.766 -8.875,1.145 -15.993,1.145 h -41.578 c -7.125,0 -12.129,-0.449 -15.648,-1.375 -4.613,-1.156 -8.414,-3.051 -11.766,-5.918 -0.871,-0.785 -1.68,-1.629 -2.43,-2.523 L 96.8477,359.414 59.1992,403.688 53.7305,345.895 0.386719,323.84 0,323.676 53.2461,300.66 55.5664,270.754 H 19.0977 V 0 H 591.91 v 347.07 c 0,19.34 -10.301,27.262 -18.836,30.461" /><path
         id="path18"
         style="fill:#1d1a19;fill-opacity:1;fill-rule:evenodd;stroke:none"
         d="m 133.578,60.4453 c -1.277,0 -3.363,0 -6.398,-0.1601 l -0.321,-19.0586 c 0,-8.0039 0.161,-13.2852 0.321,-16.3282 1.597,-0.1601 3.363,-0.3242 5.121,-0.3242 4.476,0 7.996,0.6406 10.398,1.9258 2.239,1.2773 4.16,3.3633 5.602,6.2461 1.601,3.0391 2.234,6.5625 2.234,10.8828 0,5.6055 -1.437,9.9297 -4.32,12.9727 -2.559,2.5586 -6.711,3.8437 -12.637,3.8437" /><path
         id="path20"
         style="fill:#1d1a19;fill-opacity:1;fill-rule:evenodd;stroke:none"
         d="m 197.102,37.8672 c 1.918,-0.1602 3.996,-0.1602 6.238,-0.1602 2.242,0 4.48,0 6.719,0.1602 L 203.5,53.3984 197.102,37.8672" /><path
         id="path22"
         style="fill:#1d1a19;fill-opacity:1;fill-rule:evenodd;stroke:none"
         d="m 107.816,122.887 c -4.476,0 -7.8355,-1.438 -10.2379,-4.321 -2.3984,-2.882 -3.5195,-7.363 -3.5195,-13.289 0,-4.488 0.6406,-8.0075 1.918,-11.0465 1.2812,-3.043 3.0429,-5.1289 4.9614,-6.5703 2.082,-1.2774 4.8,-1.918 8.003,-1.918 3.997,0 7.36,1.4414 9.754,4.4844 2.403,3.039 3.528,7.5234 3.528,13.7694 0,6.406 -1.285,11.367 -4.16,14.731 -2.243,2.722 -5.606,4.16 -10.247,4.16" /><path
         id="path24"
         style="fill:#1d1a19;fill-opacity:1;fill-rule:evenodd;stroke:none"
         d="m 179.82,194.621 v -2.558 c 2.559,-0.165 3.996,-0.325 4.477,-0.649 0.32,-0.16 0.484,-0.316 0.644,-0.637 0.157,-0.48 0.317,-1.925 0.317,-4.484 v -11.211 c 0,-6.398 -0.317,-10.566 -0.801,-12.328 -0.641,-1.918 -1.758,-3.359 -3.516,-4.477 -1.761,-1.125 -4.164,-1.605 -7.355,-1.605 -2.402,0 -4.648,0.48 -6.727,1.605 -1.277,0.637 -2.402,1.758 -3.199,3.2 -0.64,1.601 -0.961,3.847 -0.961,7.043 0,3.843 0,7.687 0,11.367 0.16,5.445 0.16,8.648 0.321,9.773 0.164,0.637 0.164,1.117 0.48,1.438 0.16,0.316 0.316,0.48 0.641,0.48 0.8,0.32 2.082,0.485 3.839,0.485 v 2.558 c -3.523,-0.164 -6.402,-0.164 -8.324,-0.164 -3.035,0 -6.718,0 -10.879,0.164 v -2.558 c 2.243,-0.165 3.524,-0.325 3.84,-0.485 0.485,-0.164 0.645,-0.324 0.801,-0.64 0.32,-0.477 0.477,-1.442 0.477,-2.879 0.164,-4.489 0.164,-7.207 0.164,-8.329 l -0.164,-13.613 c 0,-3.679 0.644,-6.406 1.765,-8.164 1.121,-1.922 3.039,-3.359 5.602,-4.64 2.718,-1.286 6.078,-1.766 10.238,-1.766 3.836,0 7.039,0.641 9.762,1.926 2.554,1.277 4.476,2.879 5.597,4.804 1.121,1.918 1.762,4.321 2.082,7.203 0,1.122 0.161,3.524 0.161,7.208 0,5.597 0.156,10.726 0.316,15.371 0.16,1.761 0.484,2.879 0.965,3.355 0.476,0.484 1.758,0.649 3.676,0.649 v 2.558 c -2.719,-0.164 -5.118,-0.164 -7.039,-0.164 -2.239,0 -4.641,0 -7.2,0.164" /><path
         id="path26"
         style="fill:#1d1a19;fill-opacity:1;fill-rule:evenodd;stroke:none"
         d="m 247.184,163.723 c -1.602,-2.887 -3.36,-5.129 -5.762,-6.414 -2.399,-1.278 -5.918,-1.918 -10.402,-1.918 -1.758,0 -3.52,0.16 -5.122,0.484 -0.156,2.879 -0.324,8.324 -0.324,16.328 l 0.324,18.895 c 3.043,0.156 5.286,0.316 6.403,0.316 5.922,0 10.078,-1.277 12.64,-3.996 2.879,-2.887 4.317,-7.207 4.317,-12.813 0,-4.32 -0.637,-8.003 -2.074,-10.882 z m 2.234,28.976 c -2.875,1.281 -6.879,1.922 -12.316,1.922 h -15.039 c -4.004,0 -7.36,0 -10.559,0 v -2.558 c 2.715,-0.325 4.156,-0.485 4.476,-0.649 0.157,-0.16 0.321,-0.316 0.481,-0.476 0.16,-0.477 0.32,-2.086 0.32,-4.805 0.157,-2.879 0.157,-6.403 0.157,-10.727 0,-9.765 -0.157,-16.332 -0.317,-19.855 -0.641,-0.477 -1.601,-1.121 -3.043,-1.918 v -1.606 c 3.684,0.161 6.402,0.321 8.32,0.321 l 11.52,-0.16 c 4.164,0 8.164,0.8 11.848,2.406 3.675,1.597 6.879,4.16 9.437,8.004 2.559,3.683 3.996,8.168 3.996,13.453 0,4 -0.961,7.519 -2.554,10.242 -1.606,2.883 -3.844,4.961 -6.727,6.406" /><path
         id="path28"
         style="fill:#1d1a19;fill-opacity:1;fill-rule:evenodd;stroke:none"
         d="m 111.66,194.297 c -6.086,0 -12.1561,0.16 -18.5584,0.324 l -0.3243,-0.164 c 0.1641,-2.879 0.3243,-6.082 0.3243,-10.082 h 2.5586 c 0.3164,3.359 0.4765,5.121 0.4765,5.445 0.1602,0.157 0.3203,0.317 0.4844,0.477 0.1562,0.164 0.7969,0.164 1.918,0.32 2.0819,0.16 4.4809,0.16 7.1989,0.16 1.442,0 2.078,0 2.242,-0.16 0,-0.156 0,-4.324 0,-12.332 0,-3.996 0,-8 0,-12.004 -0.164,-5.445 -0.32,-8.648 -0.48,-9.609 0,-0.481 -0.32,-0.957 -0.48,-1.281 -0.321,-0.157 -0.641,-0.317 -1.282,-0.477 -1.281,-0.164 -2.398,-0.32 -3.519,-0.32 v -2.567 c 2.719,0.161 6.238,0.321 10.558,0.321 3.36,0 6.563,-0.16 9.446,-0.321 v 2.567 c -2.883,0.32 -4.485,0.48 -4.645,0.64 -0.476,0.317 -0.64,1.118 -0.801,2.559 -0.156,1.281 -0.156,4.961 -0.156,10.891 l 0.156,20.332 c 0,0.961 0.161,1.445 0.161,1.601 0.164,0.16 0.324,0.16 0.8,0.16 4.801,0 8,-0.16 9.602,-0.316 0.476,-0.164 0.801,-0.324 0.961,-0.484 0.156,-0.317 0.316,-2.082 0.476,-5.602 h 2.563 c 0.16,3.84 0.48,7.039 0.801,9.766 l -0.321,0.48 c -7.355,-0.164 -14.082,-0.324 -20.16,-0.324" /><path
         id="path30"
         style="fill:#1d1a19;fill-opacity:1;fill-rule:evenodd;stroke:none"
         d="m 68.9336,176.207 c -1.2773,0.484 -3.5195,0.961 -6.8789,1.441 -3.6758,0.637 -6.0781,1.122 -7.1953,1.602 -1.125,0.48 -1.918,1.121 -2.5586,2.082 -0.6406,0.957 -0.961,2.082 -0.961,3.359 0,2.243 0.6368,3.844 2.2383,5.286 1.5977,1.277 3.6797,1.921 6.4024,1.921 2.0742,0 3.8398,-0.32 5.4336,-1.121 1.6015,-0.64 2.5625,-1.281 2.8828,-2.082 0.1601,-0.32 0.3203,-2.078 0.4844,-5.125 H 71.5 c 0,2.403 0.1563,4.164 0.3164,5.282 0.1602,0.968 0.3242,2.246 0.6406,3.367 l -0.3164,0.801 c -1.7656,0.8 -3.5234,1.437 -5.4414,1.761 -1.7617,0.321 -3.6797,0.477 -6.0859,0.477 -5.9141,0 -10.0781,-1.278 -12.7969,-4.004 -2.7187,-2.559 -3.9961,-5.762 -3.9961,-9.602 0,-2.242 0.4766,-4.168 1.4375,-5.925 0.957,-1.602 2.2383,-2.723 3.8399,-3.524 1.7617,-0.797 4.9609,-1.598 9.7578,-2.242 3.1992,-0.477 5.2812,-1.277 6.5586,-2.402 1.125,-1.118 1.6015,-2.719 1.6015,-4.805 0,-2.234 -0.7968,-4.16 -2.5586,-5.602 -1.6015,-1.601 -3.9961,-2.402 -6.7187,-2.402 -1.7617,0 -3.3633,0.324 -4.961,0.801 -1.6015,0.64 -2.8789,1.281 -3.8437,2.082 -0.957,0.801 -1.5938,1.601 -1.7578,2.078 -0.1602,0.484 -0.1602,2.246 -0.3203,5.289 h -2.5586 c 0,-2.723 -0.1563,-4.965 -0.3164,-6.566 -0.1602,-1.125 -0.3242,-2.403 -0.6407,-3.84 2.0782,-1.121 4.3165,-1.922 6.2422,-2.406 2.0782,-0.477 4.4766,-0.641 6.875,-0.641 5.7618,0 10.2422,1.441 13.4414,4.168 3.3594,2.879 4.961,6.398 4.961,10.726 0,2.563 -0.4805,4.481 -1.4414,6.082 -1.125,1.602 -2.5586,2.883 -4.4844,3.684" /><path
         id="path32"
         style="fill:#1d1a19;fill-opacity:1;fill-rule:evenodd;stroke:none"
         d="m 476.625,201.664 c 2.082,0.965 3.359,1.766 3.68,2.242 0.48,0.481 0.64,0.961 0.64,1.602 0,0.64 -0.32,1.117 -0.8,1.601 -0.477,0.485 -0.961,0.641 -1.762,0.641 -0.641,0 -1.274,-0.156 -1.758,-0.48 -0.641,-0.321 -1.762,-1.278 -3.359,-2.883 l -7.039,-6.727 h 2.878 l 7.52,4.004" /><path
         id="path34"
         style="fill:#1d1a19;fill-opacity:1;fill-rule:evenodd;stroke:none"
         d="m 483.984,159.234 c -2.398,-2.882 -5.601,-4.484 -9.597,-4.484 -3.364,0 -5.918,0.641 -8.004,2.082 -2.074,1.285 -3.68,3.523 -4.957,6.406 -1.446,3.043 -2.078,6.723 -2.078,11.051 0,5.922 1.281,10.402 3.679,13.285 2.399,2.887 5.758,4.324 10.078,4.324 4.637,0 8.161,-1.281 10.403,-4.164 2.719,-3.359 4.16,-8.324 4.16,-14.73 0,-6.086 -1.281,-10.727 -3.684,-13.77 z m 2.719,33.465 c -3.195,1.758 -7.519,2.559 -12.637,2.559 -5.281,0 -9.757,-0.961 -13.121,-2.719 -3.355,-1.762 -6.082,-4.164 -8,-7.523 -1.922,-3.203 -2.882,-7.207 -2.882,-12.012 0,-6.723 2.082,-12.008 5.921,-15.695 3.996,-3.836 9.762,-5.762 17.121,-5.762 4.961,0 9.282,0.965 12.801,2.726 3.52,1.918 6.239,4.641 8.16,8.004 1.918,3.524 2.883,7.524 2.883,12.328 0,4.325 -0.801,8.008 -2.558,11.051 -1.926,3.039 -4.328,5.442 -7.688,7.043" /><path
         id="path36"
         style="fill:#1d1a19;fill-opacity:1;fill-rule:evenodd;stroke:none"
         d="m 306.859,156.352 c -2.718,-0.477 -5.918,-0.637 -9.277,-0.637 l -6.078,0.16 c -0.16,3.039 -0.32,7.523 -0.32,13.285 0,1.125 0,2.246 0.16,3.363 1.437,0 2.719,0.165 3.836,0.165 3.519,0 5.761,-0.165 6.883,-0.325 0.32,-0.16 0.64,-0.316 0.796,-0.64 0.164,-0.317 0.325,-1.922 0.481,-4.481 h 2.719 l -0.161,6.723 c 0,1.117 0,3.363 0.161,6.723 h -2.719 c -0.156,-2.239 -0.317,-3.36 -0.317,-3.84 -0.164,-0.481 -0.484,-0.641 -0.8,-0.797 -0.481,-0.16 -2.243,-0.324 -5.121,-0.324 -1.758,0 -3.84,0.164 -6.082,0.164 0.164,3.839 0.324,8.8 0.484,15.047 2.242,0 4.316,0.16 5.918,0.16 3.519,0 6.078,-0.16 7.844,-0.637 0.632,-0.164 1.117,-0.324 1.277,-0.484 0.16,-0.157 0.316,-1.762 0.316,-4.805 h 2.403 c 0.324,3.68 0.64,6.726 0.965,8.808 l -0.164,0.317 c -1.442,0.16 -3.043,0.324 -4.797,0.324 l -16.645,-0.164 c -2.719,0 -6.558,0 -11.359,0.164 v -2.558 c 2.718,-0.165 4.16,-0.485 4.48,-0.809 0.481,-0.316 0.641,-0.957 0.641,-2.238 0.156,-2.239 0.316,-6.727 0.316,-13.61 0,-10.25 -0.316,-16.812 -0.636,-20.015 -0.965,-0.641 -1.922,-1.118 -3.04,-1.602 v -1.762 c 3.836,0.161 7.36,0.321 10.719,0.321 2.563,0 5.438,0 8.481,-0.16 3.199,-0.161 5.437,-0.161 6.558,-0.161 1.602,0 3.524,0.161 5.282,0.321 0.164,3.367 0.32,6.726 0.8,10.25 h -2.558 c -0.485,-2.403 -0.965,-4.481 -1.446,-6.246" /><path
         id="path38"
         style="fill:#1d1a19;fill-opacity:1;fill-rule:evenodd;stroke:none"
         d="m 562.703,194.621 v -2.558 c 2.402,0 3.844,-0.165 4.324,-0.325 0.321,-0.16 0.641,-0.64 0.641,-1.277 0,-1.609 -0.641,-4.328 -1.762,-8.488 l -4.961,-18.735 -12.64,31.383 h -2.719 c -1.277,-2.883 -3.516,-7.527 -6.559,-13.933 l -7.679,-16.008 -3.52,15.847 c -1.281,5.93 -1.922,9.133 -1.922,9.934 0,0.477 0.324,0.953 0.805,1.117 0.316,0.32 1.758,0.485 3.836,0.485 v 2.558 c -3.52,-0.164 -6.723,-0.164 -9.438,-0.164 -2.562,0 -5.445,0 -8.804,0.164 v -2.558 c 1.925,-0.165 3.043,-0.325 3.519,-0.649 0.324,-0.316 0.641,-1.117 1.117,-2.562 l 3.204,-14.247 c 2.722,-12.648 4.484,-20.332 4.96,-22.734 h 4.321 c 1.922,4.32 4.16,9.125 6.558,14.246 l 7.684,16.496 12.16,-30.742 h 5.758 l 4.801,17.774 c 2.883,10.406 4.636,16.812 5.437,19.05 0.485,1.442 0.965,2.243 1.442,2.719 0.324,0.324 1.441,0.484 3.043,0.649 v 2.558 c -3.043,-0.164 -5.286,-0.164 -6.403,-0.164 -1.117,0 -3.519,0 -7.203,0.164" /><path
         id="path40"
         style="fill:#1d1a19;fill-opacity:1;fill-rule:evenodd;stroke:none"
         d="m 361.902,194.621 v -2.558 c 2.563,-0.165 4,-0.325 4.325,-0.325 0.316,-0.16 0.476,-0.324 0.636,-0.484 0.325,-0.477 0.481,-1.758 0.481,-3.68 0.16,-3.359 0.16,-7.203 0.16,-11.847 v -12.004 c -2.719,3.035 -6.238,6.882 -10.078,11.523 -5.922,7.043 -11.043,13.449 -15.684,19.375 -2.238,0 -4.16,-0.164 -5.922,-0.164 -1.433,0 -3.84,0.164 -7.043,0.164 v -2.558 c 2.727,-0.165 4.168,-0.325 4.645,-0.649 0.164,-0.16 0.48,-0.316 0.48,-0.637 0.321,-0.48 0.321,-2.562 0.321,-5.922 l 0.164,-12.808 c 0,-2.402 -0.164,-6.086 -0.164,-11.051 -0.16,-2.879 -0.321,-4.644 -0.477,-5.121 -0.16,-0.324 -0.324,-0.641 -0.641,-0.801 -0.484,-0.16 -1.921,-0.324 -4.328,-0.48 v -2.567 c 3.844,0.161 6.403,0.321 7.528,0.321 1.433,0 3.84,-0.16 7.039,-0.321 v 2.567 c -2.563,0.156 -3.996,0.48 -4.321,0.64 -0.324,0.157 -0.324,0.317 -0.476,0.481 -0.164,0.637 -0.324,2.562 -0.484,5.762 0,4.64 -0.165,8.484 -0.165,11.687 v 11.852 c 2.407,-3.043 5.286,-6.731 9.122,-11.211 7.367,-8.649 13.601,-16.012 18.726,-21.778 1.117,0 2.875,-0.316 5.274,-0.8 l 0.324,0.484 c -0.16,3.203 -0.16,6.566 -0.16,9.766 v 12.171 l 0.16,12.168 c 0,2.719 0,4.161 0.16,4.645 0.16,0.316 0.316,0.637 0.476,0.793 0.165,0.16 0.325,0.324 0.641,0.324 0.484,0.16 1.766,0.32 4.004,0.485 v 2.558 c -2.402,0 -5.121,-0.164 -8.164,-0.164 -2.074,0 -4.316,0.164 -6.559,0.164" /><path
         id="path42"
         style="fill:#1d1a19;fill-opacity:1;fill-rule:evenodd;stroke:none"
         d="m 412.305,194.297 c -6.078,0 -12.321,0.16 -18.559,0.324 l -0.324,-0.164 c 0.164,-2.879 0.324,-6.082 0.324,-10.082 h 2.559 c 0.32,3.359 0.48,5.121 0.48,5.445 0.156,0.157 0.156,0.317 0.32,0.477 0.161,0.164 0.801,0.164 2.079,0.32 1.921,0.16 4.324,0.16 7.199,0.16 1.437,0 2.086,0 2.086,-0.16 0.152,-0.156 0.152,-4.324 0.152,-12.332 0,-3.996 0,-8 -0.152,-12.004 0,-5.445 -0.168,-8.648 -0.324,-9.609 -0.161,-0.481 -0.325,-0.957 -0.477,-1.281 -0.324,-0.157 -0.805,-0.317 -1.285,-0.477 -1.278,-0.164 -2.559,-0.32 -3.68,-0.32 v -2.567 c 2.723,0.161 6.399,0.321 10.727,0.321 3.351,0 6.554,-0.16 9.437,-0.321 v 2.567 c -2.883,0.32 -4.484,0.48 -4.804,0.64 -0.321,0.317 -0.637,1.118 -0.637,2.559 -0.164,1.281 -0.164,4.961 -0.164,10.891 l 0.164,20.332 c 0,0.961 0,1.445 0.156,1.601 0,0.16 0.324,0.16 0.641,0.16 4.804,0 8,-0.16 9.761,-0.316 0.485,-0.164 0.805,-0.324 0.961,-0.484 0.16,-0.317 0.325,-2.082 0.481,-5.602 h 2.554 c 0.165,3.84 0.325,7.039 0.801,9.766 l -0.316,0.48 c -7.52,-0.164 -14.242,-0.324 -20.16,-0.324" /><path
         id="path44"
         style="fill:#1d1a19;fill-opacity:1;fill-rule:evenodd;stroke:none"
         d="m 215.98,253.383 c -2.718,-6.567 -7.519,-16.817 -14.402,-30.586 -6.555,13.453 -10.238,21.141 -11.035,22.902 -1.125,2.559 -2.242,5.121 -3.359,7.684 -2.567,-0.16 -5.121,-0.16 -7.844,-0.16 -2.402,0 -4.801,0 -7.195,0.16 v -2.563 c 2.558,-0.16 3.835,-0.316 4.316,-0.476 0.316,-0.164 0.477,-0.481 0.641,-0.641 0.16,-0.644 0.32,-2.086 0.32,-4.484 0.156,-3.848 0.156,-7.367 0.156,-10.41 0,-5.922 -0.156,-11.368 -0.316,-16.332 0,-2.403 -0.16,-3.844 -0.641,-4.321 -0.32,-0.324 -1.285,-0.64 -2.719,-0.801 h -1.757 v -2.566 c 2.394,0.164 5.117,0.164 8.16,0.164 2.074,0 4.152,0 6.238,-0.164 v 2.566 c -2.727,0 -4.164,0.321 -4.645,0.801 -0.316,0.317 -0.636,1.442 -0.636,3.199 -0.157,4.325 -0.157,12.172 -0.157,23.54 v 4.164 L 191.5,223.441 c 2.559,-5.281 4.645,-9.765 6.238,-13.132 h 1.918 c 1.125,2.566 2.723,5.925 4.645,10.086 4.957,10.25 8.801,18.418 12,24.664 v -18.414 c 0,-5.282 0,-8.645 -0.164,-10.086 -0.157,-1.446 -0.317,-2.243 -0.641,-2.563 -0.476,-0.32 -1.277,-0.641 -2.715,-0.641 h -1.761 v -2.566 c 4.476,0.164 8.003,0.164 10.562,0.164 2.559,0 5.438,0 8.801,-0.164 v 2.566 c -2.563,0.161 -4,0.321 -4.324,0.477 -0.317,0.164 -0.485,0.484 -0.637,0.801 -0.164,0.48 -0.32,2.722 -0.32,6.73 -0.161,4 -0.161,7.84 -0.161,11.367 0,7.204 0,12.008 0.161,14.567 0.156,1.601 0.32,2.566 0.796,2.883 0.325,0.324 1.762,0.48 4.485,0.64 v 2.563 c -2.399,-0.16 -4.961,-0.16 -7.524,-0.16 -2.078,0 -4.48,0 -6.879,0.16" /><path
         id="path46"
         style="fill:#1d1a19;fill-opacity:1;fill-rule:evenodd;stroke:none"
         d="m 71.3398,234.809 c -1.2812,0.64 -3.5234,1.121 -6.8828,1.601 -3.6797,0.485 -6.0781,1.121 -7.1992,1.602 -1.1211,0.32 -1.9219,1.125 -2.5586,2.082 -0.6406,0.961 -0.9648,2.086 -0.9648,3.363 0,2.082 0.6406,3.84 2.2422,5.121 1.6015,1.442 3.6797,2.082 6.4023,2.082 2.0781,0 3.8399,-0.316 5.4375,-1.121 1.6016,-0.797 2.5586,-1.437 2.8828,-2.078 0.1602,-0.484 0.3164,-2.086 0.4766,-5.281 h 2.7226 c 0,2.558 0.1602,4.32 0.3204,5.281 0.1601,1.117 0.3203,2.242 0.6406,3.519 l -0.3203,0.801 c -1.7618,0.801 -3.5235,1.282 -5.4414,1.602 -1.7579,0.32 -3.6836,0.48 -6.0782,0.48 -5.9257,0 -10.0781,-1.281 -12.8007,-3.843 -2.7227,-2.723 -4.004,-5.922 -4.004,-9.766 0,-2.242 0.4844,-4.164 1.4415,-5.766 0.9609,-1.601 2.2421,-2.883 3.8437,-3.683 1.7578,-0.801 4.957,-1.438 9.7617,-2.239 3.1953,-0.48 5.2774,-1.281 6.5547,-2.402 1.1172,-0.965 1.6016,-2.559 1.6016,-4.644 0,-2.403 -0.8008,-4.165 -2.5586,-5.762 -1.6016,-1.442 -4.0039,-2.242 -6.7227,-2.242 -1.7578,0 -3.3594,0.316 -4.9609,0.8 -1.5977,0.481 -2.875,1.118 -3.836,2.082 -0.957,0.801 -1.5976,1.438 -1.7578,1.922 -0.1679,0.481 -0.1679,2.399 -0.3242,5.285 h -2.5586 c 0,-2.726 -0.1601,-4.804 -0.3203,-6.406 -0.1641,-1.125 -0.3242,-2.402 -0.6406,-3.844 2.0781,-1.125 4.3203,-1.925 6.2383,-2.402 2.082,-0.48 4.4804,-0.801 6.8789,-0.801 5.7617,0 10.2422,1.442 13.4375,4.321 3.3672,2.882 4.9687,6.406 4.9687,10.726 0,2.403 -0.4844,4.489 -1.4414,6.086 -1.1211,1.602 -2.5625,2.887 -4.4805,3.524" /><path
         id="path48"
         style="fill:#1d1a19;fill-opacity:1;fill-rule:evenodd;stroke:none"
         d="m 560.469,222.32 c -1.442,-2.882 -3.36,-4.965 -5.762,-6.246 -2.402,-1.277 -5.762,-1.918 -10.398,-1.918 -1.758,0 -3.524,0.16 -5.125,0.317 -0.157,3.043 -0.317,8.324 -0.317,16.332 l 0.317,18.898 c 3.043,0.317 5.285,0.317 6.562,0.317 5.762,0 9.918,-1.278 12.481,-3.844 2.882,-3.039 4.324,-7.363 4.324,-12.969 0,-4.32 -0.641,-7.844 -2.082,-10.887 z m 2.234,28.981 c -2.715,1.445 -6.875,2.082 -12.316,2.082 l -15.039,-0.16 c -3.84,0 -7.36,0 -10.403,0.16 v -2.563 c 2.559,-0.316 4.16,-0.64 4.325,-0.8 0.32,0 0.32,-0.157 0.476,-0.317 0.16,-0.484 0.32,-2.086 0.32,-4.965 0.161,-2.886 0.161,-6.406 0.161,-10.566 0,-9.774 -0.161,-16.496 -0.321,-20.016 -0.636,-0.324 -1.601,-0.961 -3.043,-1.761 v -1.606 c 3.684,0.164 6.403,0.164 8.325,0.164 l 11.515,-0.164 c 4.16,0 8.164,0.805 11.848,2.406 3.836,1.602 6.875,4.321 9.437,8.008 2.715,3.84 4,8.324 4,13.445 0,4.165 -0.965,7.532 -2.558,10.411 -1.602,2.718 -3.844,4.961 -6.727,6.242" /><path
         id="path50"
         style="fill:#1d1a19;fill-opacity:1;fill-rule:evenodd;stroke:none"
         d="m 122.539,227.285 c -2.242,0 -4.16,0 -6.078,0.156 l 6.398,15.532 6.559,-15.532 c -2.238,-0.156 -4.477,-0.156 -6.879,-0.156 z m 19.039,-6.246 -13.762,32.664 h -4.476 l -10.723,-26.262 c -1.918,-4.8 -3.515,-8.324 -4.637,-11.043 -0.64,-1.285 -1.121,-2.082 -1.441,-2.242 -0.48,-0.324 -1.601,-0.48 -3.519,-0.64 v -2.727 c 1.597,0.164 3.839,0.164 6.714,0.164 2.883,0 5.286,0 7.368,-0.164 v 2.566 c -2.399,0.161 -3.844,0.321 -4.325,0.641 -0.32,0.16 -0.636,0.477 -0.636,0.961 0,0.316 0.156,0.641 0.316,1.117 0.481,1.926 0.961,3.364 1.277,4.164 l 1.286,3.524 c 2.242,0.16 4.636,0.16 7.363,0.16 3.039,0 5.918,0 8.476,-0.16 l 1.918,-5.125 c 0.801,-2.239 1.282,-3.524 1.282,-4.004 0,-0.317 -0.157,-0.637 -0.481,-0.957 -0.476,-0.16 -1.758,-0.16 -4.16,-0.321 v -2.566 c 3.043,0.164 6.402,0.164 9.922,0.164 2.879,0 6.082,0 9.277,-0.164 v 2.566 c -2.078,0.161 -3.359,0.477 -3.836,0.801 -0.324,0.477 -1.441,2.719 -3.203,6.883" /><path
         id="path52"
         style="fill:#1d1a19;fill-opacity:1;fill-rule:evenodd;stroke:none"
         d="m 475.023,227.285 c -2.242,0 -4.316,0 -6.238,0.156 l 6.403,15.532 6.554,-15.532 c -2.074,-0.156 -4.316,-0.156 -6.719,-0.156 z m 21.547,-16.363 c 1.465,-0.02 2.961,-0.051 4.535,-0.133 v 2.566 c -2.238,0.161 -3.523,0.477 -3.839,0.801 -0.481,0.477 -1.602,2.719 -3.36,6.883 l -13.601,32.664 h -4.481 l -10.719,-26.262 c -1.917,-4.8 -3.519,-8.324 -4.8,-11.043 -0.641,-1.285 -1.121,-2.082 -1.442,-2.242 -0.48,-0.324 -1.597,-0.48 -3.515,-0.64 v -2.727 c 1.757,0.164 4,0.164 6.718,0.164 2.875,0 5.438,0 7.36,-0.164 v 2.566 c -2.399,0.161 -3.84,0.321 -4.16,0.641 -0.481,0.16 -0.641,0.477 -0.641,0.961 0,0.316 0,0.641 0.16,1.117 0.481,1.926 0.961,3.364 1.278,4.164 l 1.441,3.524 c 2.242,0.16 4.644,0.16 7.359,0.16 3.047,0 5.762,0 8.321,-0.16 l 2.082,-5.125 c 0.797,-2.239 1.281,-3.524 1.281,-4.004 0,-0.317 -0.32,-0.637 -0.641,-0.957 -0.32,-0.16 -1.761,-0.16 -4.164,-0.321 v -2.566 c 3.203,0.164 6.563,0.164 9.922,0.164 0.633,0 1.274,-0.012 1.906,-0.012 -2.871,-1.117 -5.109,-2.558 -6.707,-4.472 -1.597,-1.922 -2.238,-3.84 -2.238,-5.766 0,-1.601 0.48,-2.879 1.602,-4 1.121,-1.121 2.558,-1.601 4.32,-1.601 2.883,0 5.601,1.601 8.16,4.804 l -1.125,1.121 c -0.957,-0.8 -1.598,-1.445 -2.074,-1.765 -0.641,-0.321 -1.117,-0.321 -1.762,-0.321 -1.125,0 -2.082,0.321 -2.883,1.122 -0.636,0.8 -0.957,1.925 -0.957,3.203 0,1.441 0.481,2.882 1.598,4.168 1.113,1.425 2.859,2.531 5.066,3.488" /><path
         id="path54"
         style="fill:#1d1a19;fill-opacity:1;fill-rule:evenodd;stroke:none"
         d="m 289.426,218 c -2.406,-3.043 -5.602,-4.484 -9.762,-4.484 -3.199,0 -5.926,0.64 -7.844,1.918 -2.078,1.441 -3.675,3.527 -5.121,6.57 -1.277,3.039 -1.918,6.562 -1.918,11.043 0,5.93 1.278,10.41 3.68,13.293 2.398,2.879 5.758,4.32 10.078,4.32 4.641,0 8.164,-1.441 10.402,-4.16 2.723,-3.363 4.161,-8.324 4.161,-14.73 0,-6.247 -1.278,-10.731 -3.676,-13.77 z m 2.719,33.461 c -3.204,1.602 -7.52,2.402 -12.641,2.402 -5.285,0 -9.762,-0.8 -13.121,-2.562 -3.36,-1.762 -6.078,-4.324 -8.004,-7.528 -1.918,-3.359 -2.875,-7.363 -2.875,-12.003 0,-6.727 1.918,-12.008 5.918,-15.852 4,-3.848 9.762,-5.766 17.117,-5.766 4.969,0 9.121,0.961 12.645,2.887 3.519,1.918 6.398,4.477 8.32,8 1.918,3.359 2.879,7.527 2.879,12.332 0,4.32 -0.961,8 -2.719,11.047 -1.766,2.879 -4.32,5.285 -7.519,7.043" /><path
         id="path56"
         style="fill:#1d1a19;fill-opacity:1;fill-rule:evenodd;stroke:none"
         d="m 365.266,215.918 -5.125,7.523 -6.395,9.766 c 3.52,1.281 5.918,3.043 7.359,4.805 1.278,1.922 2.079,4.004 2.079,6.406 0,1.922 -0.481,3.523 -1.282,4.961 -0.961,1.441 -2.078,2.402 -3.679,3.043 -1.438,0.641 -3.836,0.961 -7.2,0.961 l -15.203,-0.32 c -1.117,0 -3.84,0.16 -8,0.32 v -2.563 c 2.243,-0.316 3.524,-0.476 3.84,-0.64 0.32,-0.16 0.485,-0.317 0.485,-0.641 0.32,-0.797 0.476,-3.199 0.636,-7.043 0,-5.285 0.164,-9.449 0.164,-12.808 0,-2.563 -0.164,-5.926 -0.164,-10.25 -0.16,-2.879 -0.316,-4.481 -0.476,-4.965 -0.16,-0.157 -0.325,-0.477 -0.485,-0.477 -0.316,-0.32 -1.757,-0.48 -4,-0.641 v -2.566 c 3.364,0.164 6.567,0.164 9.602,0.164 2.883,0 6.086,0 9.598,-0.164 v 2.566 c -2.239,0.161 -3.676,0.321 -3.997,0.477 -0.32,0.164 -0.64,0.484 -0.8,0.641 -0.157,0.484 -0.321,2.086 -0.481,5.129 -0.16,4.003 -0.16,7.199 -0.16,9.925 l 0.16,11.207 0.324,8.969 c 1.442,0.16 2.715,0.317 3.676,0.317 2.879,0 4.961,-0.801 6.403,-2.079 1.441,-1.285 2.074,-3.203 2.074,-5.761 0,-2.727 -0.797,-4.969 -2.715,-6.407 -1.762,-1.601 -3.52,-2.246 -5.441,-2.246 -0.481,0 -0.961,0 -1.762,0.164 -0.16,-0.484 -0.317,-0.804 -0.477,-1.121 l 6.239,-9.609 c 3.523,-5.285 6.082,-9.285 7.843,-12.172 1.442,0.164 4.797,0.164 9.914,0.164 h 1.758 v 2.402 c -0.957,0 -1.758,0.161 -2.234,0.321 -0.481,0.32 -1.117,1.121 -2.078,2.242" /><path
         id="path58"
         style="fill:#1d1a19;fill-opacity:1;fill-rule:evenodd;stroke:none"
         d="m 396.625,253.383 -0.32,-0.32 c 0.16,-1.125 0.16,-1.918 0.16,-2.883 v -1.922 c -0.16,-1.918 -0.16,-3.684 -0.16,-5.121 h 2.402 l 0.316,2.238 c 0.325,1.922 0.485,2.883 0.801,3.203 0.321,0.32 0.801,0.481 1.758,0.481 2.242,0.32 5.281,0.32 9.281,0.32 h 7.52 C 407.984,233.691 399.508,221.68 392.781,213.195 v -2.406 c 5.125,0.164 8.485,0.164 10.078,0.164 l 22.887,-0.316 c 1.117,0 2.399,0 3.524,0.152 0.316,4.168 0.636,7.848 1.117,10.731 h -2.567 l -0.316,-1.602 c -0.641,-2.719 -1.117,-4.32 -1.441,-4.645 -0.161,-0.16 -0.637,-0.316 -1.278,-0.476 -2.082,-0.324 -4.961,-0.481 -8.64,-0.481 -3.516,0 -7.36,0.157 -11.52,0.317 8.004,12.012 16.641,24.18 25.762,36.347 v 2.083 c -2.082,0 -9.442,0 -22.242,0 -3.36,0 -7.2,0 -11.52,0.32" /><path
         id="path60"
         style="fill:#1d1a19;fill-opacity:1;fill-rule:nonzero;stroke:none"
         d="m 426.063,323.063 v 12.796 c 0,3.684 -0.477,6.246 -1.434,7.524 -0.957,1.285 -2.883,1.922 -5.758,1.922 h -3.832 v -31.207 h 3.352 c 2.722,0 4.797,0.64 5.918,2.078 1.121,1.285 1.754,3.687 1.754,6.887" /><path
         id="path62"
         style="fill:#1d1a19;fill-opacity:1;fill-rule:nonzero;stroke:none"
         d="m 558.051,266.516 -0.371,0.851 c -0.223,-0.304 -0.461,-0.558 -0.692,-0.851 -1.336,-1.719 -2.711,-3.114 -4.129,-4.246 h 7.051 l -1.859,4.246" /></g></g></svg>